<?xml version="1.0" encoding="UTF-8"?>
<svg width="207px" height="30px" viewBox="0 0 207 30" version="1.1" xmlns="http://www.w3.org/2000/svg" xmlns:xlink="http://www.w3.org/1999/xlink">
    <title>logo</title>
    <g id="页面-1" stroke="none" stroke-width="1" fill="none" fill-rule="evenodd">
        <g id="碳核算概览" transform="translate(-12.000000, -13.000000)" fill="#FFFFFF">
            <g id="logo" transform="translate(12.000000, 13.000000)">
                <g id="名" transform="translate(36.353958, 0.658317)">
                    <g id="中">
                        <path d="M5.8697404,3.36100377 L5.8697404,1.60712824 L9.04106288,1.60712824 L9.04106288,0.0728281129 L11.8744017,0.0728281129 L11.8744017,1.60712824 L15.4518497,1.60712824 L15.4518497,3.36100377 L5.8697404,3.36100377 Z M5.19513592,16.877847 L5.19513592,15.0516889 C6.36445036,13.9319907 6.90413394,11.8371596 6.81418668,8.76719553 L6.81418668,5.26080829 L13.7646571,5.26080829 L13.7646571,14.2470337 C13.8082679,14.6384507 13.966357,14.8321135 14.2361988,14.8321135 C14.5510142,14.8321135 14.7091034,14.6384507 14.7091034,14.2470337 L14.7091034,13.5896713 L16.1264542,13.5896713 L16.1264542,14.4666091 C16.170065,15.7813338 15.5867706,16.4141474 14.3711197,16.3664136 L13.2917525,16.3664136 C11.9425436,16.4141474 11.2897445,15.7322362 11.3347181,14.3206801 L11.3347181,7.01468382 L9.31090467,7.01468382 L9.31090467,8.69491294 C9.53577283,12.932309 8.16339564,15.6599536 5.19513592,16.877847 L5.19513592,16.877847 Z M0.404762689,4.16429513 L0.404762689,2.33813702 L1.95567158,2.33813702 L1.95567158,0.000545528936 L4.31746868,0.000545528936 L4.31746868,2.33813702 L5.59989861,2.33813702 L5.59989861,4.16429513 L4.38561054,4.16429513 C4.69906313,5.77224167 5.17196769,7.20971042 5.80159854,8.47533755 L5.80159854,11.1061508 C5.21694132,10.2292131 4.72223137,9.42592172 4.31746868,8.69491294 L4.31746868,16.877847 L1.95567158,16.877847 L1.95567158,9.7177797 C1.46096162,10.935673 0.809525377,12.1290176 -2.84217094e-14,13.2978133 L-2.84217094e-14,10.5210711 C0.853136172,8.47533755 1.48412986,6.35732145 1.88889255,4.16429513 L0.404762689,4.16429513 Z" id="Fill-1"></path>
                        <path d="M28.4065726,9.49847707 C28.3152625,8.08692094 28.0917571,6.3562304 27.7319681,4.31049689 L29.1493189,4.31049689 C29.3728242,5.28562986 29.6658343,6.8935764 30.0256233,9.13297268 L30.0256233,0.292676274 L32.3206414,0.292676274 L32.3206414,16.8781197 L30.0256233,16.8781197 L30.0256233,9.49847707 L28.4065726,9.49847707 Z M23.5480575,9.49847707 C23.4131366,8.13601855 23.1882684,6.405328 22.873453,4.31049689 L24.2226619,4.31049689 C24.582451,5.82161204 24.8740982,7.45274356 25.1003292,9.20661908 L25.1003292,0.584534255 L27.3939844,0.584534255 L27.3939844,16.147111 L25.1003292,16.147111 L25.1003292,9.49847707 L23.5480575,9.49847707 Z M18.1498588,16.8781197 L18.1498588,15.1242442 C19.5440414,14.0536437 20.2186459,12.6161749 20.1750351,10.8132018 L20.1750351,0.292676274 L22.5368322,0.292676274 L22.5368322,10.5213438 C22.7153639,13.4931127 21.2544022,15.6111288 18.1498588,16.8781197 L18.1498588,16.8781197 Z M17.4752543,9.49847707 C17.880017,7.93962813 18.1948324,6.2103014 18.4197006,4.31049689 L19.8370514,4.31049689 C19.7471041,6.11347002 19.522236,7.84279675 19.1624469,9.49847707 L17.4752543,9.49847707 Z" id="Fill-3"></path>
                        <path d="M35.3566341,16.8779834 L35.3566341,15.0518252 C40.0338919,12.5192072 43.0035144,8.71959813 44.2627761,3.65299814 L40.6199119,3.65299814 C39.7190764,5.35913988 38.1000257,6.770696 35.7613968,7.89039414 L35.7613968,6.21016502 C37.5153685,4.84770651 38.6397093,2.801973 39.1357821,0.0729644952 L41.8342,0.0729644952 C41.6992791,0.707141883 41.5643582,1.26767286 41.4294373,1.75319362 L47.1642568,1.75319362 L47.1642568,3.65299814 C46.4896523,5.79692685 45.7700742,7.55080238 45.0055225,8.91462472 C46.1748369,11.6422694 47.975145,13.7357367 50.4037211,15.1977542 L50.4037211,16.8779834 C47.0743095,15.4173296 44.7574861,13.5666227 43.4532507,11.3244988 C42.0140945,13.2243033 39.3143137,15.0750102 35.3566341,16.8779834" id="Fill-5"></path>
                        <path d="M65.1132333,12.2749466 C65.3381015,11.3980088 65.517996,10.2783107 65.6529169,8.91448834 L67.1370468,8.91448834 C67.0470995,10.1814793 66.8222314,11.3011774 66.4624423,12.2749466 L65.1132333,12.2749466 Z M59.5133347,16.731918 L59.5133347,15.3435468 C61.7620163,14.4188753 62.8195781,12.5927172 62.6846572,9.86370869 L62.6846572,8.10983316 L64.7752497,8.10983316 L64.7752497,9.86370869 C64.6403288,12.5927172 65.6297487,14.4188753 67.7448722,15.3435468 L67.7448722,16.731918 C65.9909006,16.2450334 64.6403288,15.3435468 63.6958825,14.0288221 C62.8413835,15.2944492 61.4458381,16.1959358 59.5133347,16.731918 L59.5133347,16.731918 Z M58.2309048,4.31158794 L58.2309048,0.730190481 L60.1879392,0.730190481 L60.1879392,2.70364141 L61.7388481,2.70364141 L61.7388481,0.000545528936 L63.8308034,0.000545528936 L63.8308034,2.70364141 L64.6403288,2.70364141 C65.1350387,2.75273901 65.3599069,2.48406601 65.3162961,1.90035005 L65.3162961,0.730190481 L67.3401096,0.730190481 L67.3401096,2.19220803 C67.3837203,3.65286175 66.7091159,4.36068555 65.3162961,4.31158794 L58.2309048,4.31158794 Z M57.8929211,7.3065418 L57.8929211,5.62631268 L58.9736512,5.62631268 L58.9736512,4.74937491 L60.9974646,4.74937491 L60.9974646,5.62631268 L67.6099513,5.62631268 L67.6099513,7.3065418 L60.9974646,7.3065418 C60.9974646,7.89162158 60.9742964,8.42760376 60.9293227,8.91448834 L61.80699,8.91448834 C61.9419109,10.2783107 62.1218054,11.3980088 62.3466736,12.2749466 L60.9974646,12.2749466 C60.9974646,12.2272128 60.9742964,12.1290176 60.9293227,11.9830886 C60.8393755,11.7389644 60.7494282,11.4239214 60.6594809,11.0325044 C60.2547182,12.932309 59.2434929,14.7584671 57.6230794,16.5123426 L57.6230794,14.3943265 C58.522552,12.4467882 58.9736512,10.0832841 58.9736512,7.3065418 L57.8929211,7.3065418 Z M54.9246614,14.2470337 L55.2612823,14.2470337 C55.6660449,14.2470337 55.8691077,14.0288221 55.8691077,13.5896713 L55.8691077,7.16061281 L54.9246614,7.16061281 L54.9246614,14.2470337 Z M52.4279434,2.8495704 L52.4279434,1.09569487 L57.6912212,1.09569487 L57.6912212,2.8495704 L55.8691077,2.8495704 C55.7777976,3.43465018 55.6210713,4.19020776 55.3962031,5.1148793 C55.3512295,5.26080829 55.3062559,5.3835523 55.2612823,5.48038369 L57.4881585,5.48038369 L57.4881585,13.5896713 C57.4881585,15.0516889 56.813554,15.7826976 55.464345,15.7826976 L53.1706898,15.7826976 L53.1706898,8.54898395 C52.9444588,8.79310815 52.6064751,9.06041733 52.1581016,9.35227531 L52.1581016,7.59839978 C53.1025479,6.38187026 53.6640369,4.79847252 53.8452943,2.8495704 L52.4279434,2.8495704 Z" id="Fill-7"></path>
                        <path d="M80.3627017,4.74923853 C79.1484136,4.06732736 77.8877891,3.58044279 76.5835538,3.28858481 L76.5835538,1.38878029 C78.1126573,1.4869755 79.3732818,1.82656726 80.3627017,2.41164704 L80.3627017,4.74923853 Z M80.0247181,9.35213893 C78.6755091,8.42746738 77.3712738,7.8669364 76.1120121,7.67190981 L76.1120121,5.69845888 C77.5511683,5.84575169 78.8554036,6.23580488 80.0247181,6.86861845 L80.0247181,9.35213893 Z M75.9770912,12.5666682 L75.9770912,10.7405101 L80.8356063,10.7405101 L80.8356063,0.0726917307 L83.3309614,0.0726917307 L83.3309614,10.7405101 L85.0862959,10.7405101 L85.0862959,12.5666682 L83.3309614,12.5666682 L83.3309614,16.805428 L80.8356063,16.805428 L80.8356063,12.5666682 L75.9770912,12.5666682 Z M69.5663043,2.48392963 L69.5663043,0.730054098 L72.9406896,0.730054098 C73.750215,0.730054098 74.7164666,0.584125108 75.8421703,0.292267127 L75.8421703,2.11842524 C75.2111766,2.31345183 74.5597403,2.43619584 73.8851359,2.48392963 L73.8851359,4.60330954 L75.7072494,4.60330954 L75.7072494,6.35718507 L73.8851359,6.35718507 C74.3348722,7.72100741 74.9195294,8.93890076 75.6391075,10.0095013 L75.6391075,12.4943856 C74.9195294,11.6665454 74.3348722,10.8632541 73.8851359,10.0831477 L73.8851359,16.805428 L71.5914806,16.805428 L71.5914806,10.8864391 C71.0054606,12.007501 70.2177406,13.1040142 69.2296835,14.1746147 L69.2296835,11.8370232 C70.3090507,9.93721871 71.051797,8.10969678 71.4565597,6.35718507 L69.4313834,6.35718507 L69.4313834,4.60330954 L71.5914806,4.60330954 L71.5914806,2.48392963 L69.5663043,2.48392963 Z" id="Fill-9"></path>
                        <path d="M92.3057904,3.72637178 L92.3057904,1.97249625 L95.6801757,1.97249625 L95.6801757,0.000409146702 L98.3104517,0.000409146702 L98.3104517,1.97249625 L102.0896,1.97249625 L102.0896,3.72637178 L98.3104517,3.72637178 L98.3104517,6.06396327 L101.684837,6.06396327 L101.684837,7.8178388 C101.053843,10.1076965 100.087592,11.9352184 98.7833563,13.297677 C99.7278025,13.9809519 100.852143,14.5646679 102.157742,15.0515525 L102.157742,16.805428 C100.222512,16.268082 98.5135145,15.5629859 97.0293846,14.6860481 C95.6801757,15.4170569 93.9016729,16.1467018 91.697965,16.8777106 L91.697965,15.1974815 C93.0921476,14.7105969 94.3296039,14.0777833 95.408971,13.297677 C94.2846302,12.1288812 93.340184,10.5468473 92.5756322,8.54884757 L95.1391292,8.54884757 C95.6801757,9.76674092 96.3316119,10.8141565 97.0961636,11.6897304 C97.905689,10.6668637 98.5816563,9.37805155 99.1213399,7.8178388 L92.4407113,7.8178388 L92.4407113,6.06396327 L95.6801757,6.06396327 L95.6801757,3.72637178 L92.3057904,3.72637178 Z M86.7058918,4.09187616 L86.7058918,2.33800064 L88.1900217,2.33800064 L88.1900217,0.0726917307 L90.6185978,0.0726917307 L90.6185978,2.33800064 L91.9010277,2.33800064 L91.9010277,4.09187616 L90.6185978,4.09187616 L90.6185978,7.52598082 C91.0233605,7.42914943 91.4730968,7.28322044 91.9678068,7.08683002 L91.9678068,8.91435196 C91.4730968,9.15847616 91.0233605,9.35213893 90.6185978,9.49806792 L90.6185978,14.3941901 C90.6185978,15.9516752 89.8990197,16.7317816 88.4598635,16.7317816 L86.9757336,16.7317816 L86.9757336,15.0515525 L87.5154172,15.0515525 C87.9637907,15.0515525 88.1900217,14.7842433 88.1900217,14.2482611 L88.1900217,10.1554303 C87.7389225,10.3027231 87.1992389,10.4009183 86.5709709,10.4486521 L86.5709709,8.25698959 C86.7495026,8.25698959 87.0193444,8.23244079 87.3804963,8.18334318 C87.7389225,8.18334318 88.0101271,8.15879438 88.1900217,8.10969678 L88.1900217,4.09187616 L86.7058918,4.09187616 Z" id="Fill-11"></path>
                        <path d="M109.106985,11.6170387 L115.517772,11.6170387 L115.517772,10.0827386 L109.106985,10.0827386 L109.106985,11.6170387 Z M109.106985,8.32886303 L115.517772,8.32886303 L115.517772,6.8682093 L109.106985,6.8682093 L109.106985,8.32886303 Z M104.181691,3.43410465 L104.181691,1.53430013 L108.837144,1.53430013 C108.882117,1.43746875 108.927091,1.29153976 108.972064,1.09651316 C109.062012,0.950584171 109.175127,0.585079784 109.310048,0 L112.076608,0 C112.030271,0.244124199 111.918519,0.609628586 111.738624,1.09651316 C111.693651,1.29153976 111.648677,1.43746875 111.603703,1.53430013 L119.565399,1.53430013 L119.565399,3.43410465 L110.860957,3.43410465 C110.681062,4.01918443 110.411221,4.53061781 110.051432,4.96840478 L118.081269,4.96840478 L118.081269,14.247852 C118.126243,15.9526299 117.383497,16.7804701 115.854393,16.7313725 L113.9655,16.7313725 L113.9655,15.0511433 L114.843168,15.0511433 C115.336515,15.0511433 115.561383,14.7838342 115.517772,14.247852 L115.517772,13.4445606 L109.106985,13.4445606 L109.106985,16.8050189 L106.543488,16.8050189 L106.543488,9.0598718 C106.182336,9.303996 105.642653,9.69404919 104.924438,10.2286675 C104.518312,10.4727917 104.225302,10.6678183 104.04677,10.8137473 L104.04677,8.76801382 C105.935663,7.16006728 107.30804,5.38300677 108.162539,3.43410465 L104.181691,3.43410465 Z" id="Fill-13"></path>
                        <path d="M136.839635,16.6588171 C133.420276,15.6359504 131.283347,13.3474565 130.428848,9.79060781 L132.655724,9.79060781 C132.790645,10.4247852 133.037319,11.1544301 133.398471,11.9822703 C134.073075,11.3508206 134.522811,10.6198118 134.74768,9.79060781 L136.772856,9.79060781 C136.321757,11.3985543 135.490426,12.5428013 134.276138,13.2247125 C134.859432,13.9557212 135.715294,14.5653498 136.839635,15.0508706 L136.839635,16.6588171 Z M132.993708,7.45301632 C133.623339,7.50211392 133.914986,7.15979452 133.871375,6.43014957 L133.871375,5.84506978 L129.889164,5.84506978 L129.889164,7.45301632 L132.993708,7.45301632 Z M129.889164,4.09119425 L133.870012,4.09119425 L133.870012,2.48324772 L129.889164,2.48324772 L129.889164,4.09119425 Z M127.663651,16.8783925 L127.663651,0.730736009 L135.961968,0.730736009 L135.961968,6.72200755 C136.006941,8.42814929 135.24239,9.25598945 133.668312,9.20689185 L129.889164,9.20689185 L129.889164,13.8820748 C130.114033,13.7361458 130.452016,13.565668 130.901753,13.3706415 C131.126621,13.2738101 131.328321,13.1769787 131.509578,13.0787835 L131.509578,14.978588 C130.563769,15.6604992 129.282702,16.2933127 127.663651,16.8783925 L127.663651,16.8783925 Z M121.657627,16.8783925 L121.657627,0.657089603 L126.987684,0.657089603 L126.987684,2.41096513 C126.852763,4.35986725 126.516142,5.89416739 125.976458,7.01386553 C126.74101,8.03673228 127.122605,9.27917443 127.122605,10.741192 C127.122605,13.2247125 126.088211,14.4671546 124.019424,14.4671546 L124.019424,12.4214211 C124.828949,12.4705187 125.233712,11.8363413 125.233712,10.5216166 C125.278686,9.30508706 124.918897,8.15947629 124.154345,7.08751193 C124.602718,5.72368959 124.873923,4.16484066 124.96387,2.41096513 L123.749582,2.41096513 L123.749582,16.8783925 L121.657627,16.8783925 Z" id="Fill-15"></path>
                        <path d="M154.045865,8.98704369 C150.356664,7.42819475 148.152956,4.60371869 147.433378,0.512251671 L150.131796,0.512251671 C150.581533,3.48265673 151.887131,5.72478065 154.045865,7.23316816 L154.045865,8.98704369 Z M150.739622,16.5126154 C150.604701,15.9766332 150.491585,15.4897486 150.401638,15.0519616 C147.476989,15.6356776 144.508729,15.9029868 141.495496,15.855253 L140.011366,15.855253 L140.011366,13.7358731 C141.945232,11.5442106 143.36122,9.0852389 144.262056,6.3562304 L147.230316,6.3562304 C146.105975,9.32799927 144.553703,11.7883348 142.574863,13.7358731 C145.363228,13.7358731 147.793167,13.6158567 149.861954,13.3703687 C149.727034,12.9325817 149.457192,12.2506705 149.052429,11.3246352 C148.872535,10.8868482 148.737614,10.5458926 148.647666,10.3017684 L150.874543,10.3017684 C151.818989,12.1047416 152.583541,14.1750239 153.168198,16.5126154 L150.739622,16.5126154 Z M138.525873,8.98704369 L138.525873,7.23316816 C140.685971,5.72478065 141.990206,3.48265673 142.439942,0.512251671 L145.139723,0.512251671 C144.373809,4.60371869 142.170101,7.42819475 138.525873,8.98704369 L138.525873,8.98704369 Z" id="Fill-16"></path>
                        <path d="M159.376467,12.421012 L162.885773,12.421012 C163.425457,12.421012 163.695299,12.129154 163.695299,11.5440742 L163.695299,8.9132609 L159.376467,8.9132609 L159.376467,12.421012 Z M157.01467,14.1012411 L157.01467,7.23303178 L166.057096,7.23303178 L166.057096,11.4717916 C166.100706,13.2734009 165.336155,14.1503387 163.762078,14.1012411 L157.01467,14.1012411 Z M165.787254,16.658408 L165.787254,14.9045324 L167.136463,14.9045324 C167.811067,14.95363 168.12452,14.5894895 168.080909,13.8093831 L168.080909,2.63013138 L156.474986,2.63013138 L156.474986,0.803973269 L170.644406,0.803973269 L170.644406,13.9553121 C170.68938,15.806019 169.856686,16.7061417 168.147688,16.658408 L165.787254,16.658408 Z M155.867161,5.77237805 L167.270021,5.77237805 L167.270021,3.94621994 L155.867161,3.94621994 L155.867161,5.77237805 Z" id="Fill-17"></path>
                    </g>
                    <g id="英" transform="translate(1.350436, 22.946038)">
                        <polygon id="Fill-18" points="4.88849752 0.018684366 4.88849752 5.71127881 3.5406514 5.71127881 3.5406514 3.01772969 1.34784612 3.01772969 1.34784612 5.71127881 0 5.71127881 0 0.018684366 1.34784612 0.018684366 1.34784612 2.56221303 3.5406514 2.56221303 3.5406514 0.018684366"></polygon>
                        <path d="M7.37117829,3.40546438 L8.66042241,3.40546438 L8.00898617,1.26835478 L7.37117829,3.40546438 Z M8.81987438,0.0245488021 L10.6992271,5.71168796 L9.35683229,5.71168796 L8.79534331,3.86098104 L7.22944321,3.86098104 L6.68021977,5.71168796 L5.32555945,5.71168796 L7.21172633,0.0245488021 L8.81987438,0.0245488021 Z" id="Fill-19"></path>
                        <polygon id="Fill-20" points="12.7560212 0.0499158976 14.4105057 3.74314679 14.4105057 0.0499158976 15.7297322 0.0499158976 15.7297322 5.73023594 14.157018 5.73023594 12.4548341 2.00018184 12.4548341 5.73023594 11.1369704 5.73023594 11.1369704 0.0430967859 12.4548341 0.0430967859 12.4548341 0.0499158976"></polygon>
                        <path d="M21.3863249,4.56771378 C21.3863249,5.19916352 20.907969,5.7105969 20.3110462,5.7105969 L16.2974903,5.7105969 L16.2974903,0.0193662772 L21.3863249,0.0193662772 L21.3863249,0.474882939 L17.6453364,0.474882939 L17.6453364,5.25508024 L19.5124235,5.25508024 C19.8081592,5.25508024 20.0439301,4.99868164 20.0439301,4.68636632 L20.0439301,3.0184116 L18.3362949,3.0184116 L18.3362949,2.56153112 L21.3863249,2.56153112 L21.3863249,4.56771378 Z" id="Fill-21"></path>
                        <polygon id="Fill-22" points="23.1240788 0.0312315316 27.964877 0.0312315316 24.8862274 5.2737646 27.9539743 5.2737646 27.9539743 5.73064509 23.0586626 5.73064509 26.1332236 0.493567305 23.1240788 0.493567305"></polygon>
                        <polygon id="Fill-23" points="33.3029745 0.018684366 33.3029745 5.71127881 31.9551284 5.71127881 31.9551284 3.01772969 29.7623231 3.01772969 29.7623231 5.71127881 28.414477 5.71127881 28.414477 0.018684366 29.7623231 0.018684366 29.7623231 2.56221303 31.9551284 2.56221303 31.9551284 0.018684366"></polygon>
                        <path d="M36.7904753,5.24253307 C37.086211,5.24253307 37.328796,4.98613447 37.328796,4.67381916 L37.328796,0.462335773 L35.77925,0.462335773 C35.4780629,0.462335773 35.2422921,0.718734373 35.2422921,1.03104969 L35.2422921,5.24253307 L36.7904753,5.24253307 Z M38.669828,4.55516661 C38.669828,5.18661636 38.1860207,5.69804973 37.5945493,5.69804973 L33.8944459,5.69804973 L33.8944459,1.14288312 C33.8944459,0.518252489 34.3782532,0 34.9697246,0 L38.669828,0 L38.669828,4.55516661 Z" id="Fill-24"></path>
                        <path d="M40.603149,5.2737646 L42.1458809,5.2737646 C42.4416166,5.2737646 42.6842016,5.017366 42.6842016,4.70505069 L42.6842016,0.0312315316 L44.0252336,0.0312315316 L44.0252336,4.58639815 C44.0252336,5.21784789 43.5414263,5.72928127 42.9499549,5.72928127 L39.2553029,5.72928127 L39.2553029,0.0312315316 L40.603149,0.0312315316 L40.603149,5.2737646 Z" id="Fill-25"></path>
                        <path d="M47.897327,0.018684366 L47.897327,5.13029049 C47.897327,5.44942492 47.6547419,5.69900441 47.3590062,5.69900441 L45.72769,5.69900441 L45.72769,5.24212393 L46.3423296,5.24212393 C46.4554451,5.24212393 46.5549322,5.1425649 46.5549322,5.01709324 L46.5549322,0.018684366 L47.897327,0.018684366 Z" id="Fill-26"></path>
                        <polygon id="Fill-27" points="50.947357 0.481020139 50.3504342 0.481020139 50.3504342 5.25439833 50.947357 5.25439833 50.947357 5.71127881 48.3933998 5.71127881 48.3933998 5.25439833 49.0025881 5.25439833 49.0025881 0.481020139 48.3933998 0.481020139 48.3933998 0.018684366 50.947357 0.018684366"></polygon>
                        <path d="M52.8035414,5.2737646 L54.3462733,5.2737646 C54.642009,5.2737646 54.884594,5.017366 54.884594,4.70505069 L54.884594,0.0312315316 L56.225626,0.0312315316 L56.225626,4.58639815 C56.225626,5.21784789 55.7418187,5.72928127 55.1503473,5.72928127 L51.4556953,5.72928127 L51.4556953,0.0312315316 L52.8035414,0.0312315316 L52.8035414,5.2737646 Z" id="Fill-28"></path>
                        <polygon id="Fill-29" points="58.158947 5.25508024 61.267579 5.25508024 61.267579 5.7105969 56.8111009 5.7105969 56.8111009 0.0439150793 61.267579 0.0439150793 61.267579 0.499431741 58.158947 0.499431741"></polygon>
                        <path d="M63.5143526,3.40546438 L64.8035967,3.40546438 L64.1521605,1.26835478 L63.5143526,3.40546438 Z M64.9630487,0.0245488021 L66.8424014,5.71168796 L65.5000066,5.71168796 L64.9385176,3.86098104 L63.3726175,3.86098104 L62.8233941,5.71168796 L61.4687337,5.71168796 L63.3549006,0.0245488021 L64.9630487,0.0245488021 Z" id="Fill-30"></path>
                        <path d="M68.6273094,2.52443515 L70.1700413,2.52443515 C70.465777,2.52443515 70.708362,2.27485566 70.708362,1.95572123 L70.708362,0.481429286 L68.6273094,0.481429286 L68.6273094,2.52443515 Z M68.6273094,5.71714325 L67.2794633,5.71714325 L67.2794633,0.0190935128 L72.049394,0.0190935128 L72.049394,1.8438878 C72.049394,2.40578261 71.6650738,2.87493749 71.1635497,2.96767741 L72.1202615,5.71714325 L70.6661141,5.71714325 L69.7148536,2.98677092 L68.6273094,2.98677092 L68.6273094,5.71714325 Z" id="Fill-31"></path>
                        <path d="M75.5137265,5.28003819 C75.8149135,5.28003819 76.0520472,5.02363959 76.0520472,4.71132427 L76.0520472,3.01745693 L74.0418621,3.01745693 L74.0418621,5.28003819 L75.5137265,5.28003819 Z M75.342009,2.55512115 C75.8094622,2.53057235 76.0520472,2.09278538 76.0520472,1.76137655 L76.0520472,0.487566486 L74.0418621,0.487566486 L74.0418621,2.55512115 L75.342009,2.55512115 Z M77.3930792,0.0252307133 L77.3930792,1.64272401 C77.3930792,2.01777515 77.2581583,2.33009047 77.0564583,2.55512115 L77.3930792,2.55512115 L77.3930792,4.59267173 C77.3930792,5.21730236 76.9092719,5.73555485 76.3178005,5.73555485 L72.694016,5.73555485 L72.694016,0.0252307133 L77.3930792,0.0252307133 Z" id="Fill-32"></path>
                        <path d="M80.8749923,5.24253307 C81.170728,5.24253307 81.413313,4.98613447 81.413313,4.67381916 L81.413313,0.462335773 L79.863767,0.462335773 C79.5625799,0.462335773 79.3268091,0.718734373 79.3268091,1.03104969 L79.3268091,5.24253307 L80.8749923,5.24253307 Z M82.7543449,4.55516661 C82.7543449,5.18661636 82.2705377,5.69804973 81.6790663,5.69804973 L77.9789629,5.69804973 L77.9789629,1.14288312 C77.9789629,0.518252489 78.4627702,0 79.0542416,0 L82.7543449,0 L82.7543449,4.55516661 Z" id="Fill-33"></path>
                        <polygon id="Fill-34" points="84.9596883 0.0499158976 86.6141728 3.74314679 86.6141728 0.0499158976 87.9333994 0.0499158976 87.9333994 5.73023594 86.3606851 5.73023594 84.6585013 2.00018184 84.6585013 5.73023594 83.3406376 5.73023594 83.3406376 0.0430967859 84.6585013 0.0430967859 84.6585013 0.0499158976"></polygon>
                        <polygon id="Fill-35" points="94.0449071 0.481020139 92.5198922 0.481020139 92.5198922 5.72355321 91.1665947 5.72355321 91.1665947 0.481020139 89.6470311 0.481020139 89.6470311 0.018684366 94.0449071 0.018684366"></polygon>
                        <polygon id="Fill-36" points="98.7382464 0.474882939 95.7768008 0.474882939 95.7768008 2.56153112 98.631945 2.56153112 98.631945 3.0184116 95.7768008 3.0184116 95.7768008 5.27962904 98.7382464 5.27962904 98.7382464 5.72969041 95.7768008 5.72969041 95.7768008 5.73650952 94.4289547 5.73650952 94.4289547 0.0193662772 98.7382464 0.0193662772"></polygon>
                        <polygon id="Fill-37" points="100.45842 5.25508024 103.567052 5.25508024 103.567052 5.7105969 99.1105735 5.7105969 99.1105735 0.0439150793 103.567052 0.0439150793 103.567052 0.499431741 100.45842 0.499431741"></polygon>
                        <polygon id="Fill-38" points="108.810705 0.018684366 108.810705 5.71127881 107.462858 5.71127881 107.462858 3.01772969 105.270053 3.01772969 105.270053 5.71127881 103.922207 5.71127881 103.922207 0.018684366 105.270053 0.018684366 105.270053 2.56221303 107.462858 2.56221303 107.462858 0.018684366"></polygon>
                        <polygon id="Fill-39" points="111.021499 0.0499158976 112.675984 3.74314679 112.675984 0.0499158976 113.99521 0.0499158976 113.99521 5.73023594 112.422496 5.73023594 110.720312 2.00018184 110.720312 5.73023594 109.402448 5.73023594 109.402448 0.0430967859 110.720312 0.0430967859 110.720312 0.0499158976"></polygon>
                        <path d="M117.482302,5.24253307 C117.778038,5.24253307 118.020623,4.98613447 118.020623,4.67381916 L118.020623,0.462335773 L116.471077,0.462335773 C116.16989,0.462335773 115.934119,0.718734373 115.934119,1.03104969 L115.934119,5.24253307 L117.482302,5.24253307 Z M119.361655,4.55516661 C119.361655,5.18661636 118.877848,5.69804973 118.286376,5.69804973 L114.586273,5.69804973 L114.586273,1.14288312 C114.586273,0.518252489 115.07008,0 115.661552,0 L119.361655,0 L119.361655,4.55516661 Z" id="Fill-40"></path>
                        <polygon id="Fill-41" points="121.294976 0.0373687321 121.294976 5.255353 123.333781 5.255353 123.333781 5.71086966 119.94713 5.71086966 119.94713 0.0373687321"></polygon>
                        <path d="M126.543944,5.24253307 C126.83968,5.24253307 127.082265,4.98613447 127.082265,4.67381916 L127.082265,0.462335773 L125.532719,0.462335773 C125.231532,0.462335773 124.995761,0.718734373 124.995761,1.03104969 L124.995761,5.24253307 L126.543944,5.24253307 Z M128.423297,4.55516661 C128.423297,5.18661636 127.939489,5.69804973 127.348018,5.69804973 L123.647915,5.69804973 L123.647915,1.14288312 C123.647915,0.518252489 124.131722,0 124.723193,0 L128.423297,0 L128.423297,4.55516661 Z" id="Fill-42"></path>
                        <path d="M134.07471,4.56771378 C134.07471,5.19916352 133.596355,5.7105969 132.999432,5.7105969 L128.985876,5.7105969 L128.985876,0.0193662772 L134.07471,0.0193662772 L134.07471,0.474882939 L130.332359,0.474882939 L130.332359,5.25508024 L132.200809,5.25508024 C132.496545,5.25508024 132.732316,4.99868164 132.732316,4.68636632 L132.732316,3.0184116 L131.024681,3.0184116 L131.024681,2.56153112 L134.07471,2.56153112 L134.07471,4.56771378 Z" id="Fill-43"></path>
                        <polygon id="Fill-44" points="135.658873 0.0436423149 136.776399 1.81251989 137.947076 0.0436423149 139.204975 0.0436423149 137.449641 2.86129927 137.449641 5.72941765 136.101795 5.72941765 136.101795 2.86129927 134.34646 0.0436423149"></polygon>
                        <polygon id="Fill-45" points="142.285124 5.25508024 145.393756 5.25508024 145.393756 5.7105969 140.937278 5.7105969 140.937278 0.0439150793 145.393756 0.0439150793 145.393756 0.499431741 142.285124 0.499431741"></polygon>
                        <path d="M148.64535,5.24253307 C148.941085,5.24253307 149.18367,4.98613447 149.18367,4.67381916 L149.18367,0.462335773 L147.634124,0.462335773 C147.332937,0.462335773 147.097166,0.718734373 147.097166,1.03104969 L147.097166,5.24253307 L148.64535,5.24253307 Z M150.524702,4.55516661 C150.524702,5.18661636 150.040895,5.69804973 149.449424,5.69804973 L145.74932,5.69804973 L145.74932,1.14288312 C145.74932,0.518252489 146.233127,0 146.824599,0 L150.524702,0 L150.524702,4.55516661 Z" id="Fill-46"></path>
                        <polygon id="Fill-47" points="151.317328 5.50506887 150.973893 3.76755921 152.180004 3.76755921 152.528891 5.50506887"></polygon>
                        <polygon id="Fill-48" points="154.432366 3.82415784 154.113462 5.54257399 152.8542 5.54257399 153.178555 3.82415784"></polygon>
                        <polygon id="Fill-49" points="156.24712 0.0373687321 156.24712 5.255353 158.285925 5.255353 158.285925 5.71086966 154.899274 5.71086966 154.899274 0.0373687321"></polygon>
                        <polygon id="Fill-50" points="162.790647 0.481020139 161.265632 0.481020139 161.265632 5.72355321 159.912335 5.72355321 159.912335 0.481020139 158.392771 0.481020139 158.392771 0.018684366 162.790647 0.018684366"></polygon>
                        <path d="M164.522541,5.21757512 L166.065273,5.21757512 C166.361008,5.21757512 166.603593,4.96117652 166.603593,4.64886121 L166.603593,1.06882757 C166.603593,0.756512252 166.361008,0.500113652 166.065273,0.500113652 L164.522541,0.500113652 L164.522541,5.21757512 Z M166.869347,0.0432331682 C167.460818,0.0432331682 167.944625,0.562849479 167.944625,1.180661 L167.944625,4.54248307 C167.944625,5.16165841 167.460818,5.6799109 166.869347,5.6799109 L163.174695,5.6799109 L163.174695,0.0432331682 L166.869347,0.0432331682 Z" id="Fill-51"></path>
                    </g>
                </g>
                <g id="图">
                    <path d="M16.1805588,0.0426876392 L13.858284,2.36664091 C14.2317014,2.33390917 14.6092074,2.31481566 14.9908018,2.31481566 C21.9794317,2.31481566 27.6638262,8.00468246 27.6638262,14.9969996 C27.6638262,21.2487612 23.1214894,26.4571987 17.1672531,27.4923399 L14.6650837,29.9949539 C14.7741107,29.9976815 14.8817748,29.9990453 14.9908018,29.9990453 C23.2577731,29.9990453 29.9820125,23.2699459 29.9820125,14.9969996 C29.9820125,7.12638087 23.8928553,0.650952403 16.1805588,0.0426876392" id="Fill-56"></path>
                    <path d="M15.449124,27.6705914 C15.2964862,27.6760467 15.1438485,27.6801382 14.9912107,27.6801382 C8.00258083,27.6801382 2.31818631,21.9902714 2.31818631,14.9979543 C2.31818631,9.02986771 6.45984897,4.0110015 12.0174996,2.66900032 L14.6845723,0 C6.55933609,0.163658681 0,6.82729463 0,14.9979543 C0,22.6721826 5.789333,29.0180479 13.2263363,29.8949857 L15.449124,27.6705914 Z" id="Fill-58"></path>
                    <path d="M23.8872677,14.2243942 C22.2436858,9.5642133 17.1166918,4.35304814 17.1166918,4.35304814 C14.8857271,8.2576715 15.3995168,9.97608765 16.3998394,11.4967496 C16.8195933,12.1363822 17.3252059,12.7405555 17.7490483,13.4579261 C19.1800275,15.8773469 20.1517305,20.7557394 20.4106696,20.6002637 L20.6137324,20.4052371 L20.6655202,20.3479565 L23.3094246,17.3311815 C24.0385426,16.4706096 24.2620479,15.2881757 23.8872677,14.2243942" id="Fill-60"></path>
                    <path d="M15.8602921,21.6924126 C15.2374754,20.6586353 14.5724108,20.0517343 14.5519682,18.9824976 L10.6147312,14.7205528 C8.92890137,12.8957585 6.08465985,12.7839251 4.2611835,14.4709733 L13.7233631,24.7146429 C14.3598081,25.4033732 15.4350868,25.4456517 16.1233197,24.8087466 L18.1784784,22.9089421 L18.1743899,22.9048507 L16.5035513,24.4568805 C16.5035513,24.4568805 16.8905971,23.401282 15.8602921,21.6924126" id="Fill-62"></path>
                    <path d="M17.512596,13.5885803 C17.0887536,12.8712097 16.583141,12.2670364 16.1620242,11.6274037 C16.0993337,11.5619403 16.0639,11.5278447 16.0639,11.5278447 C14.7119653,14.0140928 15.0990111,14.8023821 15.8063237,15.7188708 C16.0652628,16.0530072 16.365087,16.4035096 16.6403801,16.8603901 C17.6706852,18.5692594 18.0113945,21.3869164 18.2866876,22.3702323 L18.451591,22.7220985 L18.6546537,22.5216166 L20.4645017,20.5413465 C20.461776,20.5331636 18.9435752,16.0093649 17.512596,13.5885803" id="Fill-66"></path>
                    <path d="M16.5035513,17.1897531 C16.2282581,16.7328727 15.9270711,16.3823703 15.6694948,16.0482339 C14.9880762,17.3234077 14.7427654,18.1880711 14.755031,18.8658908 C14.7754735,19.9337637 15.1993159,20.5174797 15.8221326,21.551257 C16.8524376,23.2601264 16.4367722,24.5189344 16.4367722,24.5189344 L18.3774526,22.78688 L18.5260019,22.649134 C18.5260019,22.649134 17.5338563,18.8986225 16.5035513,17.1897531" id="Fill-68"></path>
                </g>
            </g>
        </g>
    </g>
</svg>